<?xml version="1.0" encoding="UTF-8" standalone="no"?>
<svg
   width="64"
   height="64"
   version="1.1"
   id="svg3"
   sodipodi:docname="com.github.emmanueltouzery.projectpad.svg"
   xml:space="preserve"
   inkscape:version="1.4.2 (ebf0e940d0, 2025-05-08)"
   xmlns:inkscape="http://www.inkscape.org/namespaces/inkscape"
   xmlns:sodipodi="http://sodipodi.sourceforge.net/DTD/sodipodi-0.dtd"
   xmlns="http://www.w3.org/2000/svg"
   xmlns:svg="http://www.w3.org/2000/svg"><defs
     id="defs3" /><sodipodi:namedview
     id="namedview3"
     pagecolor="#ffffff"
     bordercolor="#000000"
     borderopacity="0.25"
     inkscape:showpageshadow="2"
     inkscape:pageopacity="0.0"
     inkscape:pagecheckerboard="0"
     inkscape:deskcolor="#d1d1d1"
     showgrid="false"
     inkscape:zoom="10.875"
     inkscape:cx="9.2413793"
     inkscape:cy="36"
     inkscape:window-width="2560"
     inkscape:window-height="1414"
     inkscape:window-x="0"
     inkscape:window-y="0"
     inkscape:window-maximized="0"
     inkscape:current-layer="svg3" /><path
     d="m 11.924245,1.6587489 c -4.8627933,0 -8.922557,3.6814048 -8.922557,8.0910001 v 44.5005 c 0,4.409595 4.0597637,8.091002 8.922557,8.091002 h 40.15151 c 4.862793,0 8.922557,-3.681407 8.922557,-8.091002 v -44.5005 c 0,-4.4095953 -4.059764,-8.0910001 -8.922557,-8.0910001 z"
     style="color:#000000;font-weight:400;line-height:normal;-inkscape-font-specification:Sans;text-indent:0;text-align:start;text-decoration-line:none;text-transform:none;fill:#6f8396;fill-opacity:1;stroke-width:4.24831;marker:none"
     font-family="Sans"
     overflow="visible"
     id="path2"
     sodipodi:nodetypes="csssssscc" /><circle
     style="fill:none;fill-opacity:1;stroke:#2e3436;stroke-width:4.46128;stroke-opacity:0.39999"
     id="path7"
     cx="32.358955"
     cy="33.471474"
     r="18.614302" /><g
     id="g12"
     transform="matrix(1.0456871,0,0,1.0456871,-1.4085344,-2.7423607)"><path
       d="m 21.594777,43.868869 c 0,1.719768 -1.398225,3.117993 -3.117993,3.117993 -1.724639,0 -3.117993,-1.398225 -3.117993,-3.117993 0,-1.724638 1.393354,-3.117992 3.117993,-3.117992 1.719768,0 3.117993,1.393354 3.117993,3.117992 z m 0,0"
       id="path3"
       style="fill:#dc8add;fill-opacity:1;stroke:#2e3436;stroke-width:1.70593;stroke-dasharray:none;stroke-opacity:1" /><path
       d="m 15.98239,48.234059 c -2.075414,0 -3.741592,1.666178 -3.741592,3.741592 v 2.494393 c 0,0.691806 0.555393,1.247197 1.247198,1.247197 h 9.977576 c 0.691806,0 1.247197,-0.555391 1.247197,-1.247197 v -2.494393 c 0,-2.075414 -1.67105,-3.741592 -3.74159,-3.741592 z m 0,0"
       id="path5"
       style="fill:#dc8add;fill-opacity:1;stroke:#2e3436;stroke-width:2.16329;stroke-dasharray:none;stroke-opacity:1" /><path
       d="m 26.630377,47.0948 c 0,1.719768 -1.398226,3.117993 -3.117993,3.117993 -1.72464,0 -3.117993,-1.398225 -3.117993,-3.117993 0,-1.724638 1.393353,-3.117991 3.117993,-3.117991 1.719767,0 3.117993,1.393353 3.117993,3.117991 z m 0,0"
       id="path1-3"
       style="fill:#dc8add;fill-opacity:1;stroke:#2e3436;stroke-width:1.70593;stroke-dasharray:none;stroke-opacity:1" /><path
       d="m 21.01799,51.459991 c -2.075414,0 -3.741592,1.666177 -3.741592,3.741591 v 2.494393 c 0,0.691806 0.555392,1.247197 1.247197,1.247197 h 9.977578 c 0.691805,0 1.247196,-0.555391 1.247196,-1.247197 v -2.494393 c 0,-2.075414 -1.67105,-3.741591 -3.741591,-3.741591 z m 0,0"
       id="path4-7"
       style="fill:#dc8add;fill-opacity:1;stroke:#2e3436;stroke-width:2.16329;stroke-dasharray:none;stroke-opacity:1" /></g><g
     id="g11"><rect
       style="fill:#8ff0a4;fill-opacity:1;stroke:none;stroke-width:1.72411;stroke-dasharray:none;stroke-opacity:1"
       id="rect8"
       width="3.5783989"
       height="3.2603188"
       x="46.197163"
       y="49.805931" /><path
       d="m 48.062269,48.879223 c -0.885875,0 -1.707771,0.467531 -2.160555,1.225466 h -4.139017 c -0.698858,0 -1.25991,0.565975 -1.25991,1.259916 0,0.693936 0.561052,1.25991 1.25991,1.25991 h 4.089804 c 0.442923,0.807132 1.289444,1.304208 2.209768,1.309134 0.915408,-0.0049 1.761911,-0.502013 2.204851,-1.309134 h 4.109484 c 0.693942,0 1.259915,-0.565974 1.259915,-1.25991 0,-0.693941 -0.565973,-1.259916 -1.259915,-1.259916 h -4.148855 c -0.457709,-0.757919 -1.2796,-1.225466 -2.16548,-1.225466 z m 0,1.259916 c 0.698856,0 1.264836,0.56598 1.264836,1.269758 0,0.698858 -0.56598,1.264837 -1.264836,1.264837 -0.703779,0 -1.269759,-0.565979 -1.269759,-1.264837 0,-0.703778 0.56598,-1.269758 1.269759,-1.269758 z m 0,0"
       id="path1-35"
       style="fill:#2e3436;stroke-width:1.25992" /><path
       d="m 46.797438,46.359398 h 2.529667 v 3.779741 h -2.529667 z m 0,0"
       id="path2-62"
       style="fill:#2e3436;stroke-width:1.25992" /><rect
       style="fill:#8ff0a4;fill-opacity:1;stroke:none;stroke-width:1.72411;stroke-dasharray:none;stroke-opacity:1"
       id="rect7"
       width="15.267836"
       height="9.3038397"
       x="40.312683"
       y="35.969456"
       ry="0" /><path
       d="m 53.097003,36.280085 c 1.402641,0 2.529674,1.127028 2.529674,2.529668 v 3.745292 c 0,1.397719 -1.127033,2.524752 -2.529674,2.524752 H 43.037376 c -1.402641,0 -2.529668,-1.127033 -2.529668,-2.524752 v -3.745292 c 0,-1.40264 1.127027,-2.529668 2.529668,-2.529668 z m -15.109126,2.529668 v 3.745292 c 0,2.795439 2.254066,5.044577 5.049499,5.044577 h 10.059627 c 2.795439,0 5.0495,-2.249138 5.0495,-5.044577 v -3.745292 c 0,-2.795432 -2.254061,-5.049499 -5.0495,-5.049499 H 43.037376 c -2.795433,0 -5.049499,2.254067 -5.049499,5.049499 z m 0,0"
       id="path3-9"
       style="fill:#2e3436;stroke-width:1.25992" /><path
       d="m 44.287449,38.799911 c 0.693936,0 1.259915,0.565979 1.259915,1.259916 0,0.693935 -0.565979,1.259915 -1.259915,1.259915 -0.693936,0 -1.259916,-0.56598 -1.259916,-1.259915 0,-0.693937 0.56598,-1.259916 1.259916,-1.259916 z m 0,0"
       id="path4-1"
       style="fill:#2e3436;stroke-width:1.25992" /><path
       d="m 48.06719,38.799911 c 0.693935,0 1.259915,0.565979 1.259915,1.259916 0,0.693935 -0.56598,1.259915 -1.259915,1.259915 -0.693935,0 -1.259916,-0.56598 -1.259916,-1.259915 0,-0.693937 0.565981,-1.259916 1.259916,-1.259916 z m 0,0"
       id="path5-2"
       style="fill:#2e3436;stroke-width:1.25992" /></g><g
     id="g14"><rect
       style="fill:#99c1f1;fill-opacity:1;stroke:none;stroke-width:2.34747"
       id="rect1"
       width="15.921022"
       height="13.904937"
       x="35.587887"
       y="8.984129" /><g
       id="g2"
       transform="matrix(1.1925592,0,0,1.1925592,-84.402616,-0.52241006)"><path
         d="m 101.37068,6.5332737 c -1.15277,0 -2.101162,0.961758 -2.101162,2.1097553 v 10.106579 c 0,1.147997 0.949342,2.109755 2.101162,2.109755 h 11.07884 c 1.15182,0 2.10116,-0.961758 2.10116,-2.109755 V 8.643029 c 0,-1.1479973 -0.94934,-2.1097553 -2.10116,-2.1097553 z m 0,1.9101452 h 11.07884 c 0.11845,0 0.19103,0.067811 0.19103,0.199611 V 18.749609 c 0,0.131799 -0.0726,0.199611 -0.19103,0.199611 h -11.07884 c -0.11845,0 -0.19103,-0.06781 -0.19103,-0.199611 V 8.643029 c 0,-0.1317996 0.0726,-0.199611 0.19103,-0.1996101 z"
         style="color:#bebebe;line-height:normal;font-variant-ligatures:normal;font-variant-position:normal;font-variant-caps:normal;font-variant-numeric:normal;font-variant-alternates:normal;font-feature-settings:normal;text-indent:0;text-align:start;text-decoration-line:none;text-decoration-style:solid;text-decoration-color:#000000;text-transform:none;text-orientation:mixed;shape-padding:0;isolation:auto;mix-blend-mode:normal;fill:#2e3436;fill-opacity:1;stroke-width:0.955071;marker:none"
         font-weight="400"
         font-family="sans-serif"
         overflow="visible"
         id="path1-36" /><path
         d="m 103.56162,12.163427 a 0.57304359,0.57304359 0 0 0 -0.39924,0.98277 l 1.50519,1.505194 -1.50519,1.505194 a 0.57304359,0.57304359 0 1 0 0.8099,0.809902 l 1.91014,-1.910145 a 0.57304359,0.57304359 0 0 0 0,-0.809902 l -1.91012,-1.910145 a 0.57304359,0.57304359 0 0 0 -0.41067,-0.17287 z"
         style="color:#bebebe;line-height:normal;font-variant-ligatures:normal;font-variant-position:normal;font-variant-caps:normal;font-variant-numeric:normal;font-variant-alternates:normal;font-feature-settings:normal;text-indent:0;text-align:start;text-decoration-line:none;text-decoration-style:solid;text-decoration-color:#000000;text-transform:none;text-orientation:mixed;shape-padding:0;isolation:auto;mix-blend-mode:normal;fill:#2e3436;fill-opacity:1;stroke-width:0.955071;marker:none"
         font-weight="400"
         font-family="sans-serif"
         overflow="visible"
         id="path2-0" /><path
         d="m 106.9101,16.084 h 2.86522 v 0.955073 h -2.86522 z"
         style="color:#bebebe;fill:#2e3436;fill-opacity:1;stroke-width:0.955071;marker:none"
         overflow="visible"
         id="path3-6" /></g></g><g
     id="g13"><path
       d="m 11.841702,15.699779 c -1.264484,0 -2.3201504,1.055667 -2.3201504,2.320146 v 12.76081 c 0,1.264481 1.0556664,2.32015 2.3201504,2.32015 h 10.440657 c 1.264483,0 2.32015,-1.055669 2.32015,-2.32015 v -12.76081 c 0,-1.264479 -1.055667,-2.320146 -2.32015,-2.320146 z"
       style="color:#000000;font-weight:400;line-height:normal;-inkscape-font-specification:Sans;text-indent:0;text-align:start;text-decoration-line:none;text-transform:none;fill:#f9f06b;fill-opacity:1;stroke:#2e3436;stroke-width:1.92292;stroke-dasharray:none;stroke-opacity:1;marker:none"
       font-family="Sans"
       overflow="visible"
       id="path4"
       sodipodi:nodetypes="csssssscc" /><path
       d="m 13.604689,20.83886 a 0.58003963,0.58003963 0 1 0 0,1.160078 h 6.960443 a 0.58003963,0.58003963 0 1 0 0,-1.160078 z m 0,2.32015 a 0.58003686,0.58003686 0 1 0 0,1.160071 h 5.800367 a 0.58003686,0.58003686 0 1 0 0,-1.160071 z m 0,2.320147 a 0.5800378,0.5800378 0 1 0 0,1.160075 h 6.960443 a 0.5800378,0.5800378 0 1 0 0,-1.160075 z m 0,2.32015 a 0.58003686,0.58003686 0 1 0 0,1.16007 h 3.480221 a 0.58003686,0.58003686 0 1 0 0,-1.16007 z"
       style="color:#000000;font-weight:400;line-height:normal;font-variant-ligatures:normal;font-variant-position:normal;font-variant-caps:normal;font-variant-numeric:normal;font-variant-alternates:normal;font-feature-settings:normal;text-indent:0;text-align:start;text-decoration-line:none;text-decoration-style:solid;text-decoration-color:#000000;text-transform:none;text-orientation:mixed;shape-padding:0;isolation:auto;mix-blend-mode:normal;fill:#2e3436;fill-opacity:1;stroke-width:1.16007"
       font-family="sans-serif"
       overflow="visible"
       id="path1" /></g></svg>
