<?xml version="1.0" encoding="UTF-8" standalone="no"?>
<!-- Created with Inkscape (http://www.inkscape.org/) -->

<svg
   xmlns:dc="http://purl.org/dc/elements/1.1/"
   xmlns:cc="http://creativecommons.org/ns#"
   xmlns:rdf="http://www.w3.org/1999/02/22-rdf-syntax-ns#"
   xmlns:svg="http://www.w3.org/2000/svg"
   xmlns="http://www.w3.org/2000/svg"
   xmlns:xlink="http://www.w3.org/1999/xlink"
   xmlns:sodipodi="http://sodipodi.sourceforge.net/DTD/sodipodi-0.dtd"
   xmlns:inkscape="http://www.inkscape.org/namespaces/inkscape"
   width="64"
   height="64"
   id="svg3384"
   version="1.1"
   inkscape:version="0.91 r13725"
   viewBox="0 0 64 64"
   sodipodi:docname="projectpad.svg"
   inkscape:export-filename="/home/emmanuel/home/projectpad/projectpad-96.png"
   inkscape:export-xdpi="180"
   inkscape:export-ydpi="180">
  <defs
     id="defs3386">
    <linearGradient
       inkscape:collect="always"
       id="linearGradient4179">
      <stop
         style="stop-color:#ffffff;stop-opacity:1"
         offset="0"
         id="stop4181" />
      <stop
         style="stop-color:#000000;stop-opacity:1"
         offset="1"
         id="stop4183" />
    </linearGradient>
    <radialGradient
       inkscape:collect="always"
       xlink:href="#linearGradient4179"
       id="radialGradient4185"
       cx="-48.741596"
       cy="3.6565185"
       fx="-48.741596"
       fy="3.6565185"
       r="4.3571954"
       gradientTransform="matrix(0.16256604,-0.14773111,0.57079958,0.62811843,-45.681409,-6.3366665)"
       gradientUnits="userSpaceOnUse" />
    <radialGradient
       inkscape:collect="always"
       xlink:href="#linearGradient4179"
       id="radialGradient4205"
       gradientUnits="userSpaceOnUse"
       gradientTransform="matrix(0.16256604,-0.14773111,0.57079958,0.62811843,-34.246899,-7.5622222)"
       cx="-48.741596"
       cy="3.6565185"
       fx="-48.741596"
       fy="3.6565185"
       r="4.3571954" />
    <radialGradient
       inkscape:collect="always"
       xlink:href="#linearGradient4179"
       id="radialGradient4207"
       gradientUnits="userSpaceOnUse"
       gradientTransform="matrix(0.16256604,-0.14773111,0.57079958,0.62811843,-23.43383,-8.7211714)"
       cx="-48.741596"
       cy="3.6565185"
       fx="-48.741596"
       fy="3.6565185"
       r="4.3571954" />
    <radialGradient
       inkscape:collect="always"
       xlink:href="#linearGradient4179"
       id="radialGradient4209"
       gradientUnits="userSpaceOnUse"
       gradientTransform="matrix(0.16256604,-0.14773111,0.57079958,0.62811843,-12.745049,-9.8667997)"
       cx="-48.741596"
       cy="3.6565185"
       fx="-48.741596"
       fy="3.6565185"
       r="4.3571954" />
  </defs>
  <sodipodi:namedview
     id="base"
     pagecolor="#ffffff"
     bordercolor="#666666"
     borderopacity="1.0"
     inkscape:pageopacity="0.0"
     inkscape:pageshadow="2"
     inkscape:zoom="8"
     inkscape:cx="45.840098"
     inkscape:cy="18.196314"
     inkscape:current-layer="layer1"
     showgrid="true"
     inkscape:document-units="px"
     inkscape:grid-bbox="true"
     inkscape:window-width="1920"
     inkscape:window-height="1016"
     inkscape:window-x="0"
     inkscape:window-y="27"
     inkscape:window-maximized="1" />
  <metadata
     id="metadata3389">
    <rdf:RDF>
      <cc:Work
         rdf:about="">
        <dc:format>image/svg+xml</dc:format>
        <dc:type
           rdf:resource="http://purl.org/dc/dcmitype/StillImage" />
        <dc:title />
      </cc:Work>
    </rdf:RDF>
  </metadata>
  <g
     id="layer1"
     inkscape:label="Layer 1"
     inkscape:groupmode="layer">
    <rect
       style="fill:#fff7ce;fill-opacity:1;fill-rule:evenodd;stroke:#bab496;stroke-width:1px;stroke-linecap:butt;stroke-linejoin:miter;stroke-opacity:1"
       id="rect3392"
       width="51.811642"
       height="50.783123"
       x="4.2426405"
       y="9.6170607" />
    <rect
       y="8.4599762"
       x="5.6568542"
       height="50.783123"
       width="51.811642"
       id="rect4194"
       style="fill:#fff7ce;fill-opacity:1;fill-rule:evenodd;stroke:#bab496;stroke-width:1px;stroke-linecap:butt;stroke-linejoin:miter;stroke-opacity:1" />
    <rect
       style="fill:#fff7ce;fill-opacity:1;fill-rule:evenodd;stroke:#bab496;stroke-width:1px;stroke-linecap:butt;stroke-linejoin:miter;stroke-opacity:1"
       id="rect4196"
       width="51.811642"
       height="50.783123"
       x="7.0710678"
       y="7.1743274" />
    <path
       style="fill:none;fill-opacity:1;stroke:url(#radialGradient4185);stroke-linecap:round;stroke-opacity:1"
       id="path4225"
       sodipodi:type="arc"
       sodipodi:cx="-49.027771"
       sodipodi:cy="-1.793111"
       sodipodi:rx="3.8569458"
       sodipodi:ry="6.1711135"
       sodipodi:start="0"
       sodipodi:end="4.5588193"
       d="m -45.170825,-1.793111 a 3.8569458,6.1711135 0 0 1 -3.659596,6.1630299 3.8569458,6.1711135 0 0 1 -4.0341,-5.5323357 3.8569458,6.1711135 0 0 1 3.246765,-6.7291819"
       transform="matrix(-0.9943052,-0.10657006,0.10657006,-0.9943052,0,0)"
       sodipodi:open="true" />
    <g
       style="font-style:normal;font-weight:normal;font-size:40px;line-height:125%;font-family:sans-serif;letter-spacing:0px;word-spacing:0px;fill:#000000;fill-opacity:1;stroke:none;stroke-width:1px;stroke-linecap:butt;stroke-linejoin:miter;stroke-opacity:1"
       id="text4247"
       transform="translate(-1.75,30.25)">
      <path
         d="m 15.472063,19.353477 -0.988769,1.330567 1.040039,1.403808 -0.529786,0 -0.795898,-1.074218 -0.795898,1.074218 -0.529786,0 1.062012,-1.430664 -0.97168,-1.303711 0.529786,0 0.725097,0.974122 0.725098,-0.974122 0.529785,0 z"
         style="font-size:5px"
         id="path4300"
         inkscape:connector-curvature="0" />
      <path
         d="m 18.431047,19.353477 -0.988769,1.330567 1.040039,1.403808 -0.529785,0 -0.795899,-1.074218 -0.795898,1.074218 -0.529785,0 1.062012,-1.430664 -0.97168,-1.303711 0.529785,0 0.725098,0.974122 0.725097,-0.974122 0.529785,0 z"
         style="font-size:5px"
         id="path4302"
         inkscape:connector-curvature="0" />
      <path
         d="m 21.390032,19.353477 -0.98877,1.330567 1.040039,1.403808 -0.529785,0 -0.795898,-1.074218 -0.795899,1.074218 -0.529785,0 1.062012,-1.430664 -0.97168,-1.303711 0.529785,0 0.725098,0.974122 0.725098,-0.974122 0.529785,0 z"
         style="font-size:5px"
         id="path4304"
         inkscape:connector-curvature="0" />
      <path
         d="m 22.139544,21.467735 0.515136,0 0,0.620117 -0.515136,0 0,-0.620117 z"
         style="font-size:5px"
         id="path4306"
         inkscape:connector-curvature="0" />
      <path
         d="m 25.940813,19.353477 -0.988769,1.330567 1.040039,1.403808 -0.529786,0 -0.795898,-1.074218 -0.795898,1.074218 -0.529786,0 1.062012,-1.430664 -0.97168,-1.303711 0.529786,0 0.725097,0.974122 0.725098,-0.974122 0.529785,0 z"
         style="font-size:5px"
         id="path4308"
         inkscape:connector-curvature="0" />
      <path
         d="m 28.899797,19.353477 -0.988769,1.330567 1.040039,1.403808 -0.529785,0 -0.795899,-1.074218 -0.795898,1.074218 -0.529785,0 1.062012,-1.430664 -0.97168,-1.303711 0.529785,0 0.725098,0.974122 0.725097,-0.974122 0.529785,0 z"
         style="font-size:5px"
         id="path4310"
         inkscape:connector-curvature="0" />
      <path
         d="m 31.858782,19.353477 -0.98877,1.330567 1.040039,1.403808 -0.529785,0 -0.795898,-1.074218 -0.795899,1.074218 -0.529785,0 1.062012,-1.430664 -0.97168,-1.303711 0.529785,0 0.725098,0.974122 0.725098,-0.974122 0.529785,0 z"
         style="font-size:5px"
         id="path4312"
         inkscape:connector-curvature="0" />
      <path
         d="m 32.608294,21.467735 0.515136,0 0,0.620117 -0.515136,0 0,-0.620117 z"
         style="font-size:5px"
         id="path4314"
         inkscape:connector-curvature="0" />
      <path
         d="m 36.409563,19.353477 -0.988769,1.330567 1.040039,1.403808 -0.529786,0 -0.795898,-1.074218 -0.795898,1.074218 -0.529786,0 1.062012,-1.430664 -0.97168,-1.303711 0.529786,0 0.725097,0.974122 0.725098,-0.974122 0.529785,0 z"
         style="font-size:5px"
         id="path4316"
         inkscape:connector-curvature="0" />
      <path
         d="m 39.368547,19.353477 -0.988769,1.330567 1.040039,1.403808 -0.529785,0 -0.795899,-1.074218 -0.795898,1.074218 -0.529785,0 1.062012,-1.430664 -0.97168,-1.303711 0.529785,0 0.725098,0.974122 0.725097,-0.974122 0.529785,0 z"
         style="font-size:5px"
         id="path4318"
         inkscape:connector-curvature="0" />
      <path
         d="m 40.118059,21.467735 0.515137,0 0,0.620117 -0.515137,0 0,-0.620117 z"
         style="font-size:5px"
         id="path4320"
         inkscape:connector-curvature="0" />
      <path
         d="m 43.919329,19.353477 -0.98877,1.330567 1.040039,1.403808 -0.529785,0 -0.795898,-1.074218 -0.795899,1.074218 -0.529785,0 1.062012,-1.430664 -0.97168,-1.303711 0.529785,0 0.725098,0.974122 0.725098,-0.974122 0.529785,0 z"
         style="font-size:5px"
         id="path4322"
         inkscape:connector-curvature="0" />
    </g>
    <rect
       style="fill:none;fill-opacity:1;stroke:#000000;stroke-opacity:1"
       id="rect4251"
       width="9.818182"
       height="7.818182"
       x="17.5"
       y="23.147728" />
    <rect
       style="fill:none;fill-opacity:1;stroke:#000000;stroke-opacity:1"
       id="rect4253"
       width="8.909091"
       height="7.2727275"
       x="10"
       y="37.81818" />
    <path
       style="fill:#fff7ce;fill-opacity:1;stroke:#000000;stroke-opacity:1"
       d="M 37.751953 38.376953 L 37.751953 45.798828 A 4.090909 1.8181819 0 0 0 37.386719 46.544922 A 4.090909 1.8181819 0 0 0 41.476562 48.363281 A 4.090909 1.8181819 0 0 0 45.568359 46.544922 A 4.090909 1.8181819 0 0 0 45.396484 46.027344 L 45.396484 38.376953 L 37.751953 38.376953 z "
       id="ellipse4259" />
    <ellipse
       style="fill:#fff7ce;fill-opacity:1;stroke:#000000;stroke-opacity:1"
       id="path4255"
       cx="41.727272"
       cy="38.545456"
       rx="4.090909"
       ry="1.8181819" />
    <path
       style="fill:none;fill-rule:evenodd;stroke:#000000;stroke-width:1px;stroke-linecap:butt;stroke-linejoin:miter;stroke-opacity:1"
       d="m 21.375,31.75 c -0.487502,1.113612 -1.190749,5.523661 -2.000011,6.374997"
       id="path4261"
       inkscape:connector-curvature="0"
       sodipodi:nodetypes="cc" />
    <path
       style="fill:none;fill-rule:evenodd;stroke:#000000;stroke-width:1px;stroke-linecap:butt;stroke-linejoin:miter;stroke-opacity:1"
       d="m 25.375,31.75 c 2.640906,2.027175 8.303366,10.415324 11.37499,12.125009"
       id="path4263"
       inkscape:connector-curvature="0"
       sodipodi:nodetypes="cc" />
    <g
       id="g4330"
       transform="matrix(0.48794497,0,0,0.39042985,10.408861,-17.867382)">
      <rect
         y="83.027634"
         x="46.958355"
         height="46.090435"
         width="45.383327"
         id="rect4328"
         style="fill:#615e60;fill-opacity:1;stroke:#000000;stroke-width:0.87150842;stroke-opacity:1" />
      <text
         transform="scale(0.77378683,1.2923456)"
         sodipodi:linespacing="125%"
         id="text4324"
         y="90.256409"
         x="63.344009"
         style="font-style:normal;font-weight:normal;font-size:72.62745667px;line-height:125%;font-family:sans-serif;letter-spacing:0px;word-spacing:0px;fill:#ffffff;fill-opacity:1;stroke:none;stroke-width:1px;stroke-linecap:butt;stroke-linejoin:miter;stroke-opacity:1"
         xml:space="preserve"><tspan
           style="font-size:20.42647362px;fill:#ffffff;fill-opacity:1"
           y="90.256409"
           x="63.344009"
           id="tspan4326"
           sodipodi:role="line">&gt;_</tspan></text>
    </g>
    <path
       sodipodi:open="true"
       transform="matrix(-0.9943052,-0.10657006,0.10657006,-0.9943052,0,0)"
       d="m -12.234466,-5.3232441 a 3.8569458,6.1711135 0 0 1 -3.659595,6.16302985 3.8569458,6.1711135 0 0 1 -4.0341,-5.53233565 3.8569458,6.1711135 0 0 1 3.246765,-6.7291821"
       sodipodi:end="4.5588193"
       sodipodi:start="0"
       sodipodi:ry="6.1711135"
       sodipodi:rx="3.8569458"
       sodipodi:cy="-5.3232441"
       sodipodi:cx="-16.091412"
       sodipodi:type="arc"
       id="path4199"
       style="fill:none;fill-opacity:1;stroke:url(#radialGradient4209);stroke-linecap:round;stroke-opacity:1" />
    <path
       style="fill:none;fill-opacity:1;stroke:url(#radialGradient4207);stroke-linecap:round;stroke-opacity:1"
       id="path4201"
       sodipodi:type="arc"
       sodipodi:cx="-26.780193"
       sodipodi:cy="-4.1776156"
       sodipodi:rx="3.8569458"
       sodipodi:ry="6.1711135"
       sodipodi:start="0"
       sodipodi:end="4.5588193"
       d="m -22.923248,-4.1776156 a 3.8569458,6.1711135 0 0 1 -3.659595,6.1630298 3.8569458,6.1711135 0 0 1 -4.0341,-5.5323357 3.8569458,6.1711135 0 0 1 3.246765,-6.7291815"
       transform="matrix(-0.9943052,-0.10657006,0.10657006,-0.9943052,0,0)"
       sodipodi:open="true" />
    <path
       sodipodi:open="true"
       transform="matrix(-0.9943052,-0.10657006,0.10657006,-0.9943052,0,0)"
       d="m -33.736316,-3.0186665 a 3.8569458,6.1711135 0 0 1 -3.659595,6.1630298 3.8569458,6.1711135 0 0 1 -4.034101,-5.5323357 3.8569458,6.1711135 0 0 1 3.246766,-6.7291818"
       sodipodi:end="4.5588193"
       sodipodi:start="0"
       sodipodi:ry="6.1711135"
       sodipodi:rx="3.8569458"
       sodipodi:cy="-3.0186665"
       sodipodi:cx="-37.593262"
       sodipodi:type="arc"
       id="path4203"
       style="fill:none;fill-opacity:1;stroke:url(#radialGradient4205);stroke-linecap:round;stroke-opacity:1" />
  </g>
</svg>
